<?xml version="1.0" encoding="UTF-8"?>
<svg version="1.1" xmlns="http://www.w3.org/2000/svg" width="941" height="281">
<path d="M0 0 C3.45708213 0.56694488 6.12693072 1.40937804 9.17578125 3.125 C9.98724609 3.57552734 10.79871094 4.02605469 11.63476562 4.49023438 C12.96024414 5.23756836 12.96024414 5.23756836 14.3125 6 C16.28673519 7.09559946 18.26206417 8.18922947 20.23828125 9.28125 C21.3154541 9.87679688 22.39262695 10.47234375 23.50244141 11.0859375 C29.27975506 14.24761131 35.10243187 17.32306123 40.92410278 20.40206909 C50.60643805 25.5230043 60.27494843 30.66339759 69.875 35.9375 C79.19791039 41.05792924 88.59403848 46.0345106 98 51 C107.85744043 56.20582289 117.70861901 61.42051415 127.5 66.75 C128.75103516 67.42869141 128.75103516 67.42869141 130.02734375 68.12109375 C131.58834827 68.97464795 133.14325214 69.83947542 134.69116211 70.71655273 C136.28080272 71.60020936 137.89609009 72.43874771 139.52954102 73.23852539 C147.14049205 77.22018368 150.68336135 82.62251081 154.9375 89.9375 C155.90526367 91.52594727 155.90526367 91.52594727 156.89257812 93.14648438 C162.06308061 101.73541234 165.29654173 108.86581253 166.60546875 118.7734375 C166.73440018 119.69661774 166.8633316 120.61979797 166.99617004 121.57095337 C167.26546544 123.51507417 167.52992393 125.45987046 167.78979492 127.40527344 C168.18556339 130.36053901 168.59837347 133.31304755 169.01367188 136.265625 C169.27445375 138.16392317 169.53425176 140.06235681 169.79296875 141.9609375 C169.97571602 143.26917984 169.97571602 143.26917984 170.16215515 144.60385132 C171.23669208 152.75343962 171.62057734 159.90784347 169.23046875 167.8671875 C162.89022651 191.33577524 167.65564259 207.41169063 178 229 C180.35225319 223.20484771 182.67602556 217.39907091 184.97363281 211.58203125 C185.86077345 209.35025214 186.76748747 207.12784416 187.6796875 204.90625 C188.13601562 203.7409375 188.59234375 202.575625 189.0625 201.375 C189.46597656 200.37210938 189.86945313 199.36921875 190.28515625 198.3359375 C191.67750458 191.83831195 190.26407041 185.76753718 188.5625 179.4375 C184.28209487 162.64769385 185.19531083 147.45390979 187.4375 130.375 C187.5624585 129.31071777 187.68741699 128.24643555 187.81616211 127.14990234 C189.65098208 112.04550608 193.68191481 101.13494376 202.68687439 88.84373474 C204.38955487 86.4530334 205.81985532 83.93565222 207.25 81.375 C211.55205016 75.50856797 217.79391193 72.69116008 224.12353516 69.47460938 C227.5635785 67.7110835 230.97607261 65.89759057 234.38671875 64.078125 C235.73687986 63.35820206 237.08705924 62.63831338 238.43725586 61.91845703 C239.1238327 61.55238342 239.81040955 61.18630981 240.51779175 60.80914307 C242.63994841 59.67954313 244.76405163 58.55369664 246.88891602 57.42919922 C254.58015964 53.35891148 262.24894093 49.25409675 269.875 45.0625 C279.93458332 39.53718143 290.0805964 34.17983272 300.2303772 28.82281494 C309.20597778 24.08429506 318.16169612 19.3156633 327.0625 14.4375 C341.06191715 6.77499238 341.06191715 6.77499238 346.6875 3.75 C347.74046265 3.17463501 347.74046265 3.17463501 348.81469727 2.58764648 C353.65553253 0 353.65553253 0 357 0 C358.1734872 5.83192208 359.33055841 11.66678002 360.47290039 17.50488281 C360.86332023 19.48818327 361.25811848 21.47062726 361.6574707 23.45214844 C362.23256627 26.30967696 362.79155565 29.16997198 363.34765625 32.03125 C363.52780777 32.90865845 363.70795929 33.78606689 363.89356995 34.69006348 C365.69187114 44.11991348 363.95441941 50.92065833 360.52734375 59.76953125 C359.99457069 61.17757271 359.99457069 61.17757271 359.45103455 62.61405945 C358.28783712 65.68330564 357.11263593 68.74780737 355.9375 71.8125 C355.12873762 73.94103322 354.3209694 76.06994444 353.51416016 78.19921875 C352.26888395 81.48503555 351.02287841 84.77055796 349.77355957 88.05484009 C345.77613274 98.56452452 341.8484878 109.09963155 337.93606567 119.64120483 C336.88400159 122.47574731 335.83075285 125.30984673 334.77709961 128.14379883 C333.18395935 132.42891213 331.59168323 136.71434528 330 141 C320.19332887 141.0683524 310.42519524 140.86925379 300.625 140.5 C299.29167502 140.45159225 297.95834168 140.40341426 296.625 140.35546875 C293.41657764 140.23922156 290.20825728 140.1207029 287 140 C289.35230024 141.89818822 291.70676289 143.79358506 294.0625 145.6875 C294.71927734 146.21794922 295.37605469 146.74839844 296.05273438 147.29492188 C296.70693359 147.82021484 297.36113281 148.34550781 298.03515625 148.88671875 C298.6269165 149.36326904 299.21867676 149.83981934 299.82836914 150.33081055 C301.86087472 151.96000538 301.86087472 151.96000538 303.64143372 152.98123169 C309.13506191 156.41489379 311.19627625 160.41610791 313.69140625 166.28125 C314.28295753 167.6179071 314.28295753 167.6179071 314.88645935 168.98156738 C315.71025479 170.85663511 316.52407554 172.73611365 317.32836914 174.61962891 C318.56383439 177.50311436 319.83883852 180.36665446 321.11914062 183.23046875 C321.91647815 185.05884429 322.71148281 186.88823933 323.50390625 188.71875 C323.88599747 189.57408325 324.26808868 190.4294165 324.66175842 191.31066895 C324.99968918 192.11500366 325.33761993 192.91933838 325.68579102 193.74804688 C325.98888687 194.45022339 326.29198273 195.1523999 326.60426331 195.87585449 C327.42876678 200.30143689 324.52621059 203.96433116 322.17431641 207.52734375 C321.60677643 208.39174072 321.03923645 209.2561377 320.45449829 210.14672852 C319.84302948 211.06768311 319.23156067 211.9886377 318.6015625 212.9375 C317.97019379 213.89519287 317.33882507 214.85288574 316.68832397 215.83959961 C315.35393205 217.8616065 314.01734165 219.88216401 312.67871094 221.90136719 C310.63464524 224.98544729 308.59803212 228.07434523 306.5625 231.1640625 C305.26345955 233.13049822 303.96399443 235.09665348 302.6640625 237.0625 C302.05664215 237.98345459 301.4492218 238.90440918 300.82339478 239.85327148 C299.23346661 242.24822268 297.61996272 244.62532499 296 247 C295.02800659 248.48222046 295.02800659 248.48222046 294.03637695 249.99438477 C291.27334783 252.71567529 288.4418236 253.31600249 284.75390625 254.02734375 C283.6808448 254.25902 283.6808448 254.25902 282.58610535 254.49537659 C280.24847614 254.99520219 277.90613226 255.4667028 275.5625 255.9375 C273.94204007 256.27701404 272.32192452 256.61817574 270.70214844 256.9609375 C267.40594138 257.65516638 264.10764345 258.33778655 260.80712891 259.01123047 C256.34703164 259.92343429 251.89749855 260.87974121 247.44921875 261.84765625 C244.88321637 262.4003376 242.31661049 262.95014347 239.75 263.5 C238.5751001 263.75515381 237.4002002 264.01030762 236.18969727 264.27319336 C224.44540857 266.72605448 224.44540857 266.72605448 219 266 C214.3677405 262.49637772 211.16312622 257.33783653 207.8125 252.625 C207.25022705 251.83931641 206.6879541 251.05363281 206.10864258 250.24414062 C202.40337868 245.04031265 198.75709205 239.79782648 195.1875 234.5 C194.76122314 233.87174316 194.33494629 233.24348633 193.89575195 232.59619141 C191 228.24133963 191 228.24133963 191 226 C190.34 226 189.68 226 189 226 C188.81642944 227.31798584 188.81642944 227.31798584 188.62915039 228.66259766 C188.03235374 231.8283758 187.17136586 234.43475781 185.93359375 237.3984375 C185.53076172 238.37167969 185.12792969 239.34492188 184.71289062 240.34765625 C184.29201172 241.34667969 183.87113281 242.34570312 183.4375 243.375 C183.01275391 244.39722656 182.58800781 245.41945312 182.15039062 246.47265625 C181.10587881 248.98417905 180.05560951 251.49312619 179 254 C176.1592946 251.55949461 175.0628656 249.15041556 173.73828125 245.67578125 C173.34189453 244.64775391 172.94550781 243.61972656 172.53710938 242.56054688 C172.13298828 241.48869141 171.72886719 240.41683594 171.3125 239.3125 C170.89677734 238.22904297 170.48105469 237.14558594 170.05273438 236.02929688 C169.02797944 233.35551101 168.01072874 230.67911259 167 228 C166.34 228 165.68 228 165 228 C163.64189789 229.79781085 162.37490912 231.66462597 161.1484375 233.5546875 C160.77071198 234.13026398 160.39298645 234.70584045 160.0038147 235.29885864 C158.78757549 237.15333508 157.5805208 239.01354114 156.375 240.875 C143.89338514 260.10661486 143.89338514 260.10661486 138 266 C130.01546527 266.51106948 122.72939076 264.9263933 114.953125 263.2265625 C113.61047548 262.93921564 112.26767874 262.65255592 110.92474365 262.36654663 C108.12646961 261.76859162 105.32960447 261.16456111 102.53369141 260.55566406 C98.95930208 259.77742476 95.38245708 259.01127762 91.8045845 258.24923134 C89.03794813 257.65917431 86.27233543 257.06443643 83.50704193 256.46812057 C81.55041738 256.04655865 79.5932368 255.62758015 77.63604736 255.20864868 C76.44420837 254.94852997 75.25236938 254.68841125 74.02441406 254.42041016 C72.97900452 254.19390778 71.93359497 253.9674054 70.85650635 253.73403931 C65.14145504 252.26543683 62.54466949 251.01633307 59.35546875 245.9609375 C58.68563965 244.91655518 58.01581055 243.87217285 57.32568359 242.79614258 C56.61247276 241.65606371 55.89975625 240.51567548 55.1875 239.375 C53.6880825 237.00885495 52.18156525 234.64725302 50.67578125 232.28515625 C50.29333252 231.68207138 49.91088379 231.07898651 49.5168457 230.45762634 C46.8682062 226.29848226 44.11672793 222.22547642 41.29296875 218.18359375 C40.55087158 217.11125488 39.80877441 216.03891602 39.04418945 214.93408203 C37.62359774 212.88977301 36.18899171 210.85511502 34.73901367 208.83154297 C34.10068604 207.9035791 33.4623584 206.97561523 32.8046875 206.01953125 C32.23733887 205.21620361 31.66999023 204.41287598 31.08544922 203.58520508 C29.11730076 198.89768281 30.60422292 195.0385036 32.35107422 190.45483398 C32.90968375 189.2143748 33.47797718 187.97824179 34.0546875 186.74609375 C34.35690216 186.08215103 34.65911682 185.41820831 34.9704895 184.73414612 C35.93025131 182.63129182 36.9024807 180.53447965 37.875 178.4375 C38.52033698 177.02706109 39.1648754 175.61625651 39.80859375 174.20507812 C41.52163978 170.46154426 43.24485291 166.72403137 45 163 C45.49483887 161.92572754 45.98967773 160.85145508 46.49951172 159.74462891 C47.92818251 157.13136547 49.00640988 155.76078192 51.328125 153.96484375 C51.96363281 153.46533203 52.59914062 152.96582031 53.25390625 152.45117188 C53.91261719 151.95166016 54.57132813 151.45214844 55.25 150.9375 C55.89324219 150.43412109 56.53648438 149.93074219 57.19921875 149.41210938 C61.39050186 146.15269102 65.67273823 143.09090126 70 140 C55.81 140.33 41.62 140.66 27 141 C20.70384488 125.47822869 14.79143342 109.84116293 9 94.125 C7.71459019 90.64749003 6.42850227 87.17023608 5.14076233 83.69358826 C4.29971469 81.41065486 3.4658668 79.1250556 2.63938904 76.83680725 C0.72352785 71.54681576 -1.25405956 66.33301959 -3.52709961 61.18530273 C-9.52445973 47.23032749 -9.16309273 37.40806079 -5.5625 22.8125 C-5.14354864 20.91592882 -4.73011229 19.01813077 -4.32226562 17.11914062 C-1.69605097 5.08815292 -1.69605097 5.08815292 0 0 Z " fill="#EC771C" transform="translate(12,2)"/>
<path d="M0 0 C2.57825543 1.85779389 4.71768675 3.76840483 7 6 C7.94875 5.0925 8.8975 4.185 9.875 3.25 C18.64785115 -4.09552219 27.94555105 -5.03025211 39.00683594 -4.22753906 C46.92018101 -3.32415376 54.4386553 0.29262437 60 6 C67.4456421 16.0325467 68.29393398 24.61488974 68.1953125 36.80859375 C68.19157667 38.14380175 68.18873239 39.47901251 68.18673706 40.81422424 C68.17914541 44.30768566 68.15953606 47.80097755 68.1373291 51.29437256 C68.11677371 54.86744901 68.10771473 58.44055318 68.09765625 62.01367188 C68.07628534 69.00918368 68.04220419 76.00458367 68 83 C56.33330973 83.92240304 56.33330973 83.92240304 51.72509766 80.734375 C48.85469164 76.06517667 49.3334721 70.5452932 49.3984375 65.25 C49.39043121 64.11852539 49.38242493 62.98705078 49.37417603 61.82128906 C49.3511318 58.2138266 49.36056233 54.60749257 49.375 51 C49.37884982 47.39271907 49.37539095 43.78593599 49.35440063 40.17871094 C49.34233043 37.93720464 49.34494907 35.6955585 49.36410522 33.45410156 C49.34421134 27.89652901 49.22684803 23.75596353 46 19 C41.08388153 14.45259042 37.15023978 13.63700342 30.640625 13.72265625 C26.60043791 14.14699543 23.09600732 15.32585049 20 18 C17.56538514 22.17965632 16.61934827 25.27674161 16.56762695 30.09716797 C16.54783279 31.27793915 16.52803864 32.45871033 16.50764465 33.67526245 C16.50125473 34.93484772 16.49486481 36.19443298 16.48828125 37.4921875 C16.46135445 39.44380295 16.46135445 39.44380295 16.43388367 41.43484497 C16.38655179 44.87722787 16.35663445 48.319546 16.33044434 51.762146 C16.30055328 55.2816649 16.25405257 58.80096101 16.20898438 62.3203125 C16.12314317 69.21341436 16.05571311 76.10659055 16 83 C4.39861083 83.76436678 4.39861083 83.76436678 -0.27490234 81.21020508 C-2.86597769 76.38851676 -2.66917228 72.03108595 -2.6015625 66.63671875 C-2.60956879 65.53076859 -2.61757507 64.42481842 -2.62582397 63.28535461 C-2.64889395 59.75236371 -2.63943523 56.22052187 -2.625 52.6875 C-2.62114519 49.16540427 -2.62466761 45.64381932 -2.64559937 42.1217804 C-2.65762914 39.93251052 -2.65511809 37.74309731 -2.63589478 35.55387878 C-2.65858462 29.32039145 -3.29621304 24.65018007 -6 19 C-11.02081334 14.10470699 -15.4469169 13.64725573 -22.203125 13.71875 C-26.48004067 14.14883091 -28.59325681 15.37396879 -32 18 C-35.377488 22.50331733 -36.12307261 26.52723465 -36.12597656 32.05639648 C-36.12978333 33.06101425 -36.13359009 34.06563202 -36.13751221 35.10069275 C-36.13853943 36.17992508 -36.13956665 37.25915741 -36.140625 38.37109375 C-36.15894652 40.65951521 -36.17851621 42.94792696 -36.19921875 45.23632812 C-36.22823169 48.84204588 -36.2500013 52.44713626 -36.25048828 56.05297852 C-36.25381791 59.53458246 -36.28833254 63.01474044 -36.328125 66.49609375 C-36.3210553 67.57330185 -36.3139856 68.65050995 -36.30670166 69.76036072 C-36.37961376 74.23655949 -36.59066591 77.23813242 -38.72949219 81.21899414 C-42 83 -42 83 -55 83 C-55 54.95 -55 26.9 -55 -2 C-42 -2 -42 -2 -38 0 C-34.95009373 -1.27487535 -34.95009373 -1.27487535 -32 -3 C-22.37209079 -6.35078047 -8.75255744 -4.87073179 0 0 Z " fill="#FFFFFF" transform="translate(665,45)"/>
<path d="M0 0 C8.32355211 7.65609746 12.26326194 17.19853367 13.25 28.25 C-0.70603067 29.11030326 -0.70603067 29.11030326 -4.3125 26.25 C-6.21021109 23.91435558 -7.62988163 21.82140879 -9.125 19.25 C-12.42154522 13.65009947 -17.07129627 11.35299565 -22.9375 8.9375 C-31.52563858 7.38881927 -39.89264691 7.17581691 -47.75 11.25 C-50.35753785 13.60519548 -50.73522552 15.19301272 -51.625 18.625 C-51.77166656 22.87833021 -50.94398816 24.64729059 -48.75 28.25 C-42.08124263 33.56239994 -33.04938858 35.39497484 -25 37.625 C3.38266799 45.53513951 3.38266799 45.53513951 10.25 57.25 C12.91528148 62.50423032 13.80307561 66.69366487 13.75 72.5625 C13.74355469 73.30870605 13.73710938 74.05491211 13.73046875 74.82373047 C13.44855903 83.37190092 10.69120178 89.25367446 4.4375 95.125 C-8.30609384 105.28640222 -23.11065426 105.35758634 -38.75 104.25 C-50.27496244 102.70514792 -61.09077009 96.31510704 -68.3203125 87.26953125 C-73.24987735 80.30618418 -74.68198335 73.68171042 -75.75 65.25 C-73.87574652 65.16811514 -72.00042946 65.11041243 -70.125 65.0625 C-69.08085938 65.02769531 -68.03671875 64.99289063 -66.9609375 64.95703125 C-63.16501212 65.30337481 -60.9521797 66.18892854 -57.75 68.25 C-55.8359375 70.73828125 -55.8359375 70.73828125 -54.125 73.5625 C-49.07455192 80.79796168 -43.07420325 84.20653159 -34.44140625 85.8984375 C-24.70852205 86.93019201 -15.84791535 85.98602337 -7.75 80.25 C-5.10069515 76.90957214 -5.3874528 73.38303804 -5.75 69.25 C-7.11102699 65.16691904 -9.31099038 63.76051549 -12.98828125 61.875 C-20.5766474 58.18037673 -28.69215159 56.11253967 -36.78710938 53.8203125 C-49.57174975 50.04226574 -61.67813112 45.31132786 -68.83203125 33.45703125 C-72.02889069 26.6107889 -71.9310379 17.78732073 -70.05859375 10.59375 C-69.12589154 8.31467849 -68.07066736 6.32652101 -66.75 4.25 C-66.36070312 3.62609375 -65.97140625 3.0021875 -65.5703125 2.359375 C-60.27386364 -4.84880985 -50.80590771 -8.99011613 -42.14453125 -10.50390625 C-27.06577998 -12.05359847 -12.13101585 -9.56178323 0 0 Z " fill="#FFFFFF" transform="translate(585.75,25.75)"/>
<path d="M0 0 C7.73671338 6.77292485 12.73764699 15.40377122 13.8125 25.6875 C13.89515914 27.1239818 13.96567693 28.56155138 14 30 C11.77191841 30.10853983 9.54230068 30.18583307 7.3125 30.25 C6.07113281 30.29640625 4.82976562 30.3428125 3.55078125 30.390625 C-0.63501305 29.93014158 -2.07748646 28.96865849 -5 26 C-6.58984375 23.81640625 -6.58984375 23.81640625 -7.9375 21.5625 C-11.2819135 16.37524641 -14.30183477 13.1332294 -20.125 10.6875 C-30.09440251 8.91873504 -38.89107558 9.52902021 -47.75 14.5625 C-56.19819112 23.71470704 -55.75041951 33.84015256 -55.59692383 45.6315918 C-55.56253633 48.55940714 -55.57631956 51.48420898 -55.59570312 54.41210938 C-55.58880497 56.29688768 -55.57913286 58.18165829 -55.56640625 60.06640625 C-55.57384605 61.36053185 -55.57384605 61.36053185 -55.58143616 62.68080139 C-55.45154328 69.47170021 -53.97934656 75.78364845 -49.2502594 80.88893127 C-42.6732474 86.92353259 -35.71886289 87.87766902 -27 88 C-20.06125197 87.51211928 -14.9100253 84.9100253 -10 80 C-8.30074758 77.74714498 -6.78058376 75.46692836 -5.32421875 73.05078125 C-3.59569912 70.37387032 -2.2108145 68.45276183 0.828125 67.31640625 C3.49436332 66.92797944 6.05625693 66.90543163 8.75 66.9375 C9.73484375 66.94652344 10.7196875 66.95554687 11.734375 66.96484375 C12.48203125 66.97644531 13.2296875 66.98804688 14 67 C13.54518972 77.68804166 10.54920866 87.17420395 3 95 C-9.33426165 105.77045347 -22.73203835 107.12021032 -38.50537109 106.22753906 C-48.83693696 105.28518054 -58.21947115 100.33369229 -65.25 92.75 C-75.03722728 80.38003219 -75.35296417 66.95865065 -75.31567383 51.86987305 C-75.31251934 49.20384586 -75.3360136 46.53893713 -75.36132812 43.87304688 C-75.4211166 28.07638096 -73.85369921 14.51401034 -62.875 2.25 C-46.12442639 -13.3912641 -18.10106657 -12.72644219 0 0 Z " fill="#FFFFFF" transform="translate(527,152)"/>
<path d="M0 0 C12 0 12 0 16 3 C18.29004343 2.6967908 18.29004343 2.6967908 20.6875 1.6875 C30.79556336 -1.42475512 42.76538054 -1.64453065 52.5703125 2.6171875 C61.23035343 7.54589247 66.47383467 14.20899079 69.53979492 23.66479492 C70.19418203 26.98533218 70.20321924 30.28810819 70.23828125 33.66015625 C70.246353 34.40526962 70.25442474 35.150383 70.26274109 35.91807556 C70.27654994 37.49573465 70.28728636 39.07342321 70.29516602 40.65112305 C70.30663257 42.24626575 70.32699921 43.84137171 70.35668945 45.4362793 C70.58840182 57.90085101 70.02636413 68.7714332 60.92578125 78.28125 C54.14149856 84.3361879 47.09131665 87.27539373 37.9375 87.375 C36.75027344 87.40335937 35.56304688 87.43171875 34.33984375 87.4609375 C30.40657538 86.91810046 28.7972781 85.75598987 26 83 C24.32284126 79.3876581 24.87221636 74.89740105 25 71 C26.92129449 69.07870551 30.57014487 69.77499504 33.125 69.6875 C39.10714299 69.37472663 43.28787649 68.85537378 48 65 C52.25204785 59.34364661 51.48587153 53.08192672 51.44604492 46.33544922 C51.43755041 44.13803925 51.46629327 41.94324628 51.49804688 39.74609375 C51.49965973 38.3333341 51.49907974 36.92056991 51.49609375 35.5078125 C51.49794678 34.23566895 51.4997998 32.96352539 51.50170898 31.65283203 C50.87493702 27.0894441 49.59972224 24.78594632 47 21 C41.57585033 17.6370272 36.29464031 17.24048142 30 18 C25.26170231 19.66717882 22.7988062 21.85362045 20 26 C18.83799746 29.48600762 18.85538414 32.61205808 18.8581543 36.23779297 C18.85467987 36.97147095 18.85120544 37.70514893 18.84762573 38.46105957 C18.84027655 40.05378335 18.8349267 41.64651731 18.83133507 43.239254 C18.82416435 45.76132243 18.80849366 48.28319691 18.78999329 50.8052063 C18.73754955 57.97574215 18.68954169 65.14617097 18.67407227 72.31689453 C18.66398816 76.70368951 18.63465473 81.0899952 18.59275246 85.47659683 C18.58044512 87.14707869 18.57532072 88.81762966 18.57755089 90.48815536 C18.57990524 92.82710709 18.55773021 95.16465595 18.5300293 97.50341797 C18.53663071 98.19138458 18.54323212 98.8793512 18.55003357 99.58816528 C18.44775222 104.85507651 17.63756263 105.45304671 14 110 C9.38 110 4.76 110 0 110 C0 73.7 0 37.4 0 0 Z " fill="#FFFFFF" transform="translate(630,171)"/>
<path d="M0 0 C12 0 12 0 16 3 C18.32369949 2.69799799 18.32369949 2.69799799 20.75 1.6875 C30.85253252 -1.43657632 43.30843629 -1.61918055 53 3 C61.33149224 7.81008815 66.77409016 14.63764934 69.39575195 23.86474609 C70.53156943 29.75814731 70.48045539 35.6962338 70.44604492 41.67651367 C70.43752663 43.93045292 70.4663946 46.1818559 70.49804688 48.43554688 C70.5606554 60.90133323 68.55283946 70.66181373 59.60546875 79.828125 C51.93687946 86.22053226 43.89407164 87.55529685 34.12890625 87.56640625 C30.3739685 86.88667345 28.67869793 85.67869793 26 83 C24.99503148 79.98509443 24.89664697 77.95818308 24.9375 74.8125 C24.94652344 73.91144531 24.95554687 73.01039063 24.96484375 72.08203125 C24.97644531 71.39496094 24.98804688 70.70789063 25 70 C26.07378906 69.97421875 27.14757812 69.9484375 28.25390625 69.921875 C38.88966309 69.8213874 38.88966309 69.8213874 48 65 C50.75576391 60.47981014 51.38403232 57.06819907 51.3984375 51.80859375 C51.40274277 50.80699974 51.40274277 50.80699974 51.40713501 49.78517151 C51.4091646 48.38256983 51.40371246 46.97993913 51.39111328 45.57739258 C51.37501597 43.43962021 51.39101034 41.30373062 51.41015625 39.16601562 C51.40817411 37.79687086 51.40433105 36.42772726 51.3984375 35.05859375 C51.39505371 33.82423584 51.39166992 32.58987793 51.38818359 31.31811523 C50.97167427 27.75787735 49.98054035 25.93213065 48 23 C48 22.34 48 21.68 48 21 C40.70591684 18.04293926 34.28239579 16.49323111 26.625 19.1875 C22.74649055 21.86551843 20.49208411 24.52374767 19 29 C18.90154927 31.37513971 18.8644798 33.75295612 18.8581543 36.13012695 C18.85467987 36.85244507 18.85120544 37.57476318 18.84762573 38.31896973 C18.84027662 39.88713627 18.83492674 41.45531316 18.83133507 43.02349281 C18.82416173 45.50803151 18.80848847 47.99237361 18.78999329 50.47685242 C18.73756642 57.5407745 18.68955737 64.60458873 18.67407227 71.66870117 C18.66397724 75.99066498 18.63461481 80.31213363 18.59275246 84.6339016 C18.58045933 86.27843667 18.57531812 87.92304173 18.57755089 89.56762123 C18.57991034 91.87284596 18.55769123 94.17665628 18.5300293 96.48168945 C18.52416306 97.79168411 18.51829681 99.10167877 18.51225281 100.45137024 C17.85578321 104.99906134 17.48309861 106.89901457 14 110 C9.38 110 4.76 110 0 110 C0 73.7 0 37.4 0 0 Z " fill="#FFFFFF" transform="translate(712,171)"/>
<path d="M0 0 C7.88197561 5.37013723 13.09144182 12.57211267 15 22 C15.08669889 24.0163954 15.11769534 26.03545681 15.11352539 28.05371094 C15.11341209 29.88515656 15.11341209 29.88515656 15.11329651 31.75360107 C15.10813522 33.06725647 15.10297394 34.38091187 15.09765625 35.734375 C15.09579021 37.0962926 15.09436718 38.45821088 15.09336853 39.82012939 C15.08955803 43.39741889 15.07974032 46.97466752 15.06866455 50.55194092 C15.05841884 54.20519457 15.05386415 57.85845486 15.04882812 61.51171875 C15.03811669 68.67449776 15.02105794 75.83724314 15 83 C12.91695462 83.05418326 10.83350232 83.09287551 8.75 83.125 C7.58984375 83.14820313 6.4296875 83.17140625 5.234375 83.1953125 C2.12252041 83.00739858 0.65119963 82.4832686 -2 81 C-4.00132767 81.65318607 -4.00132767 81.65318607 -6.0625 82.875 C-14.97445752 86.76818798 -27.45872019 86.71825498 -36.625 83.5 C-44.66009713 79.51054618 -50.96327261 73.49913337 -54 65 C-56.51478092 57.03652708 -55.35260857 48.50001659 -52 41 C-47.61106912 33.00587589 -40.71660385 27.60960053 -32 25 C-26.45977778 23.9576386 -21.75621047 23.39441018 -16.375 25.25 C-14 27 -14 27 -12 30 C-11.8046875 32.91796875 -11.8046875 32.91796875 -11.875 36.1875 C-11.89304687 37.27417969 -11.91109375 38.36085937 -11.9296875 39.48046875 C-11.95289063 40.31191406 -11.97609375 41.14335938 -12 42 C-13.62808594 42.03867188 -13.62808594 42.03867188 -15.2890625 42.078125 C-16.73441349 42.13443738 -18.17972444 42.191784 -19.625 42.25 C-20.33785156 42.26417969 -21.05070313 42.27835938 -21.78515625 42.29296875 C-26.91027982 42.52806616 -29.8933779 43.69467001 -34 47 C-36.34746539 49.98768323 -36.42133539 53.2192819 -36.31640625 56.96875 C-35.78254307 60.39601982 -34.25665977 62.43838621 -32 65 C-26.03902671 67.98048665 -18.89609609 68.20357108 -12.546875 66.2421875 C-8.69192159 64.42893164 -6.2048151 62.72440085 -4 59 C-3.69546673 56.31992321 -3.55552839 53.87817584 -3.56640625 51.19921875 C-3.5611644 50.44461868 -3.55592255 49.69001862 -3.55052185 48.91255188 C-3.54410941 47.3180972 -3.54542864 45.72359517 -3.55395508 44.12915039 C-3.56243641 41.70567092 -3.53374389 39.28457313 -3.50195312 36.86132812 C-3.50034005 35.30729237 -3.50092068 33.75325248 -3.50390625 32.19921875 C-3.49267227 31.48231369 -3.48143829 30.76540863 -3.46986389 30.02677917 C-3.54527733 24.50168221 -4.91697162 21.42822339 -8 17 C-13.43407322 13.63087461 -18.69599607 13.25773751 -25 14 C-30.64489456 15.8454463 -33.40222589 19.53835358 -37 24 C-41.6940006 28.95477841 -41.6940006 28.95477841 -45.8203125 29.09765625 C-46.91085937 29.08605469 -48.00140625 29.07445312 -49.125 29.0625 C-50.22070312 29.05347656 -51.31640625 29.04445312 -52.4453125 29.03515625 C-53.28835938 29.02355469 -54.13140625 29.01195312 -55 29 C-54.95933404 19.80949201 -52.0764117 11.95755746 -46.2109375 4.82421875 C-34.70050739 -6.23621512 -13.7531882 -7.94229791 0 0 Z " fill="#FFFFFF" transform="translate(797,45)"/>
<path d="M0 0 C7.50805415 5.10444301 12.78574453 12.14297811 15 21 C17.71882298 38.70211753 18.50348957 59.39137754 8.1875 74.6875 C1.94568522 81.28598991 -5.57597686 84.96428612 -14.71875 85.3984375 C-16.31249994 85.40626279 -17.9064026 85.39839703 -19.5 85.375 C-20.29019531 85.38660156 -21.08039062 85.39820313 -21.89453125 85.41015625 C-32.00780336 85.36050025 -39.73280539 82.01270141 -47 75 C-55.23477933 65.49518008 -55.48786219 52.4508516 -55.375 40.5 C-55.38660156 39.27152344 -55.39820313 38.04304688 -55.41015625 36.77734375 C-55.37097771 24.46222113 -53.76018071 13.20228329 -45 4 C-32.63133893 -5.56933328 -13.90451663 -7.79112585 0 0 Z M-33.25 18.375 C-37.92722063 25.39083095 -37.33264293 32.18891281 -37.3125 40.375 C-37.32861328 41.67695313 -37.34472656 42.97890625 -37.36132812 44.3203125 C-37.470848 54.83463745 -37.470848 54.83463745 -32.46484375 63.7421875 C-26.16083485 68.41779512 -21.78536667 68.56046488 -14 68 C-9.22766425 66.38081466 -6.74111783 64.2095738 -4 60 C-1.53747265 53.68739631 -1.66873256 47.87996778 -1.6875 41.1875 C-1.67138672 40.04990234 -1.65527344 38.91230469 -1.63867188 37.74023438 C-1.60010304 26.84651402 -1.60010304 26.84651402 -6.41674805 17.38354492 C-11.47113399 12.96670527 -15.84962319 12.70888405 -22.2734375 12.78515625 C-27.16998942 13.17098771 -29.92646468 14.86682383 -33.25 18.375 Z " fill="#FFFFFF" transform="translate(603,173)"/>
<path d="M0 0 C5.78657658 3.36450788 11.69298064 8.13755126 14.82421875 14.1875 C16.18897075 19.43297538 15.66648757 25.02608406 15.3984375 30.39453125 C7.0531467 31.30126305 7.0531467 31.30126305 3.28125 29.234375 C0.55808139 26.9494846 -1.32556114 24.89853374 -3.0390625 21.76953125 C-5.43871782 18.12205516 -8.48720452 16.68503814 -12.6015625 15.39453125 C-18.56144678 14.56804499 -23.53559586 14.89660191 -28.6015625 18.39453125 C-32.51950257 22.63014213 -33.72460254 25.71460114 -33.72753906 31.41333008 C-33.73134583 32.43481644 -33.73515259 33.4563028 -33.73907471 34.50874329 C-33.74010193 35.61187363 -33.74112915 36.71500397 -33.7421875 37.8515625 C-33.76051419 40.18425457 -33.78008437 42.51693713 -33.80078125 44.84960938 C-33.82976159 48.52986684 -33.85156283 52.20951354 -33.85205078 55.88989258 C-33.85538504 59.44016812 -33.88993517 62.989032 -33.9296875 66.5390625 C-33.9226178 67.63612015 -33.9155481 68.7331778 -33.90826416 69.86347961 C-34.04444222 78.41592096 -34.04444222 78.41592096 -36.33105469 82.13549805 C-39.6015625 84.39453125 -39.6015625 84.39453125 -52.6015625 84.39453125 C-52.6015625 56.34453125 -52.6015625 28.29453125 -52.6015625 -0.60546875 C-40.6015625 -0.60546875 -40.6015625 -0.60546875 -36.6015625 1.39453125 C-34.56624853 0.7433195 -34.56624853 0.7433195 -32.4765625 -0.48046875 C-22.78702321 -4.70080142 -9.63334024 -4.19420814 0 0 Z " fill="#FFFFFF" transform="translate(925.6015625,171.60546875)"/>
<path d="M0 0 C0.78826172 0.00974854 1.57652344 0.01949707 2.38867188 0.02954102 C12.89444314 0.34734275 20.42137645 3.41917399 28.015625 10.83203125 C35.45877391 19.76113255 35.1875 27.63547533 35.1875 39.4375 C12.0875 39.4375 -11.0125 39.4375 -34.8125 39.4375 C-34.8125 27.80878784 -33.79430272 18.3389452 -25.8125 9.4375 C-18.16414394 2.96472459 -9.96478467 -0.13839979 0 0 Z M-10.8125 20.4375 C-11.1425 21.0975 -11.4725 21.7575 -11.8125 22.4375 C-3.5625 22.4375 4.6875 22.4375 13.1875 22.4375 C9.0307631 18.2807631 6.03501054 17.31609644 0.25 17.125 C-4.10521216 17.20950412 -7.12190542 17.97710361 -10.8125 20.4375 Z " fill="#FFFFFF" transform="translate(825.8125,168.5625)"/>
<path d="M0 0 C12 0 12 0 15.1875 1.875 C17.65042242 4.76256422 18.12559099 6.29919443 18.15390015 10.00325012 C18.16250061 10.84018906 18.17110107 11.67712799 18.17996216 12.53942871 C18.18422211 13.45945679 18.18848206 14.37948486 18.19287109 15.32739258 C18.20104858 16.29501022 18.20922607 17.26262787 18.21765137 18.25956726 C18.24252472 21.47121557 18.2590257 24.68281965 18.2734375 27.89453125 C18.27876118 28.98971258 18.28408485 30.08489391 18.28956985 31.21326256 C18.31630891 37.00911129 18.33568207 42.80493841 18.35009766 48.60083008 C18.36675416 54.59341385 18.41153866 60.58544859 18.4624691 66.57782459 C18.4960902 71.18031969 18.50766945 75.78268362 18.51332474 80.38529015 C18.52005059 82.59453214 18.53530704 84.8037651 18.55921555 87.01288795 C18.59076115 90.103858 18.59091956 93.19333571 18.58349609 96.28442383 C18.59990143 97.19837921 18.61630676 98.11233459 18.63320923 99.0539856 C18.59324507 103.11550002 18.27265217 105.5085808 16.27603149 109.10722351 C13 111 13 111 0 111 C0 74.37 0 37.74 0 0 Z " fill="#FFFFFF" transform="translate(858,17)"/>
<path d="M0 0 C12.67857143 0 12.67857143 0 16 3 C17.67930241 5.81309719 18.25283305 7.90037226 18.27415466 11.16110229 C18.28911736 12.39322449 18.28911736 12.39322449 18.30438232 13.65023804 C18.305047 14.54280304 18.30571167 15.43536804 18.30639648 16.35498047 C18.31472 17.30177673 18.32304352 18.248573 18.33161926 19.22406006 C18.35572231 22.35514432 18.36449156 25.48602029 18.37109375 28.6171875 C18.38005944 30.79428165 18.38918128 32.97137515 18.39845276 35.14846802 C18.41494586 39.71308897 18.42264354 44.27763654 18.42553711 48.84228516 C18.43092291 54.68902531 18.46861031 60.53507523 18.51428127 66.38162041 C18.54403391 70.87865717 18.55126028 75.37552732 18.55226326 79.87265396 C18.55646866 82.02802824 18.56891571 84.18340288 18.58978081 86.33868027 C18.61665873 89.35504585 18.61188013 92.36980599 18.59936523 95.38623047 C18.61419952 96.27474701 18.62903381 97.16326355 18.64431763 98.07870483 C18.59507485 102.24994099 18.10490525 104.78100993 16.27503967 108.6008606 C13 111 13 111 0 111 C0 74.37 0 37.74 0 0 Z " fill="#FFFFFF" transform="translate(825,17)"/>
<path d="M0 0 C11.90900701 -0.56312292 11.90900701 -0.56312292 16 3 C18.18385904 6.27578856 18.37262518 7.96963755 18.8125 11.8125 C19.67958554 17.45879718 20.77302167 20.17559103 25 24 C29.91845478 27.09007268 35.40102856 26.44520123 41 26 C46.89392948 24.41317283 49.60108183 20.0214122 53.0703125 15.27734375 C55.05057452 12.94031388 56.11550216 11.93877293 59 11 C62.015625 10.8046875 62.015625 10.8046875 65.25 10.875 C66.32765625 10.89304688 67.4053125 10.91109375 68.515625 10.9296875 C69.74539063 10.96449219 69.74539063 10.96449219 71 11 C69.67234533 21.42307998 66.76971774 30.24430061 58.8984375 37.53125 C49.14146528 45.07985402 37.81212284 44.90319094 26 44 C18.34557923 42.54618553 11.9536951 39.0677357 7 33 C1.70735589 24.39078633 -0.18913196 17.17762914 -0.0625 7.125 C-0.05798828 6.43664062 -0.05347656 5.74828125 -0.04882812 5.0390625 C-0.03716336 3.35933665 -0.01923271 1.67965625 0 0 Z " fill="#FFFFFF" transform="translate(791,214)"/>
<path d="M0 0 C4.40617281 2.16303029 7.1644597 4.41114924 9 9 C9.83617033 13.93340496 9.59268623 17.73488671 6.75 21.9375 C4.24883651 25.20290789 1.72836372 26.75472066 -2.3671875 27.3359375 C-8.07568491 27.42485491 -11.6242073 27.05561275 -16 23 C-19.05146436 18.52451893 -19.95053785 14.29132736 -19 9 C-14.7433041 0.6442636 -8.94458542 -1.29008444 0 0 Z " fill="#F9F6F4" transform="translate(92,104)"/>
<path d="M0 0 C4.20140665 1.55607654 6.70248122 3.13049468 9 7 C10.24283781 10.72851342 10.5280726 14.12746761 10 18 C7.77864953 22.3604287 5.59457298 25.20212362 1 27 C-3.54286363 27.53974617 -7.5613645 27.53166964 -11.875 25.9375 C-15.91657155 22.25253771 -17.75473907 18.74748411 -18.5 13.4375 C-17.74292549 8.23261275 -15.30143271 5.41298408 -11.8125 1.625 C-7.82825707 -0.67700703 -4.49768694 -0.65839156 0 0 Z " fill="#F9F7F5" transform="translate(296,104)"/>
<path d="M0 0 C3.30768307 2.32144729 4.8136678 5.00622827 5.5625 9 C4.72644071 13.45898285 2.80828083 16.67392739 -0.875 19.375 C-3.85516446 20.25151896 -5.89838626 20.43422592 -9 20 C-12.51580725 17.94358444 -14.37917556 16.70569948 -15.7734375 12.875 C-16.36295256 9.582614 -16.60165277 7.13044914 -15 4.12109375 C-10.51982736 -1.41245282 -6.61481279 -1.84758564 0 0 Z " fill="#F9F6F3" transform="translate(336,88)"/>
<path d="M0 0 C4.17785978 0.31818137 6.63204918 0.73322317 10.171875 3.1171875 C12.21205656 6.210366 12.85388692 8.33160089 12.5859375 12.0546875 C11.69614754 15.78888799 9.98071301 17.60208628 7.109375 20.0546875 C4.35990947 21.1104371 2.03380108 21.41452899 -0.890625 21.0546875 C-6.32272377 18.19048997 -6.32272377 18.19048997 -7.890625 15.0546875 C-8.31131424 11.99567576 -8.38090955 9.10710424 -7.890625 6.0546875 C-5.453125 3.0546875 -5.453125 3.0546875 -2.890625 1.0546875 C-1.890625 0.0546875 -1.890625 0.0546875 0 0 Z " fill="#F9F6F4" transform="translate(46.890625,86.9453125)"/>
<path d="M0 0 C2.4375 1.5625 2.4375 1.5625 4 4 C3.78571429 10.21428571 3.78571429 10.21428571 1 13 C-1.93188861 13.27922749 -4.15390647 13.47143881 -7 13 C-9.45636081 10.92744557 -9.88864581 9.63630966 -10.4375 6.5 C-9.41545969 0.65976965 -5.50319355 -0.91719892 0 0 Z " fill="#F9F5F3" transform="translate(29,61)"/>
<path d="M0 0 C2.375 1.625 2.375 1.625 4 4 C4.45319325 7.17235276 4.52990283 9.06487736 2.9375 11.875 C-0.1069286 13.64273274 -2.5631012 13.36823916 -6 13 C-7.9375 11.9375 -7.9375 11.9375 -9 10 C-9.63316583 4.09045226 -9.63316583 4.09045226 -7.875 1.0625 C-5.06487736 -0.52990283 -3.17235276 -0.45319325 0 0 Z " fill="#F9F7F5" transform="translate(356,61)"/>
<path d="M0 0 C1.67542976 0.28604898 3.34385343 0.61781233 5 1 C5 2.65 5 4.3 5 6 C3.34385343 6.38218767 1.67542976 6.71395102 0 7 C-1 6 -1 6 -1.125 3.5 C-1 1 -1 1 0 0 Z " fill="#F8EFE9" transform="translate(11,44)"/>
<path d="M0 0 C2.125 0.375 2.125 0.375 4 1 C4.625 2.875 4.625 2.875 5 5 C4.34 5.66 3.68 6.32 3 7 C0.875 6.625 0.875 6.625 -1 6 C-1.625 4.125 -1.625 4.125 -2 2 C-1.34 1.34 -0.68 0.68 0 0 Z " fill="#F8F2EE" transform="translate(365,44)"/>
</svg>
